<?xml version="1.0" encoding="utf-8"?>
<!-- Generator: Adobe Illustrator 24.0.2, SVG Export Plug-In . SVG Version: 6.00 Build 0)  -->
<svg version="1.1" id="Layer_1" xmlns="http://www.w3.org/2000/svg" xmlns:xlink="http://www.w3.org/1999/xlink" x="0px" y="0px"
	 viewBox="0 0 255.1 141.7" style="enable-background:new 0 0 255.1 141.7;" xml:space="preserve">
<style type="text/css">
	.st0{fill:#040C13;}
	.st1{fill:#0052A1;}
</style>
<g>
	<polygon class="st0" points="250.1,50.7 224.4,50.7 224.4,40.8 246.5,40.8 246.5,29.1 224.4,29.1 224.4,20 250.1,20 250.1,7.2 
		209.1,7.2 209.1,63.5 250.1,63.5 	"/>
	<g>
		<path class="st0" d="M195.4,48.5l0.1-41.2h-15.4c0,0.3,0,35,0,35s-2.5,7.1-10.9,7.1c-8.1,0-10.4-7.1-10.4-7.1s0-34.6,0-35h-15.3
			c0,0.4,0,41.1,0,41.1s6.2,16.3,25.9,16.3C188.6,64.6,195.4,48.5,195.4,48.5"/>
	</g>
	<polygon class="st0" points="35.9,133.5 51.2,133.5 51.2,114.3 73.4,114.3 73.4,102 51.2,102 51.2,90.1 76.8,90.1 76.8,77.3 
		35.9,77.3 	"/>
	<path class="st0" d="M111.8,121.6c-7.6,0-11.5-5.1-11.5-5.1V93.6c0,0,3.5-4.8,11.5-4.8s11.6,4.8,11.6,4.8v22.8
		C123.5,116.5,120.1,121.6,111.8,121.6 M111.9,75.7c-18.2,0-25.6,12.2-25.6,12.2v34.9c0,0,7.5,12.2,25.7,12.2
		c17.9,0,25.7-12.1,25.7-12.1l0.1-34.8C137.6,88.1,129.8,75.7,111.9,75.7"/>
	<path class="st0" d="M175.2,106.1h-11.3V89.9l10.6,0.1c0,0,4.2,0.2,7,3.6v9.4c-2.6,3.2-6.8,3.2-6.8,3.2 M196.9,106.7V88.4
		C191.2,78.3,178,77.2,178,77.2h-29.3c0,0-0.2,37.6-0.2,56.2h15.3v-15c2.6,0,9.2,0,9.2,0l10.1,15h16.5c0,0-8.9-12.9-12.1-17.7
		C189.9,114.5,194.4,112.2,196.9,106.7"/>
	<path class="st0" d="M252.3,109.4c-2-3.5-4.8-5.1-8.4-6.5c-5.2-2.1-9.4-2.6-14-3.7c-3.1-0.7-6-1.7-6.8-2.5V91
		c0.4-0.4,3-2.3,8.2-2.3c5.9,0,9.3,5.3,10.2,6.4c3.8-1.8,7.6-3.6,11.5-5.5c-1.6-3.5-3.9-6.3-7-8.5c-4-2.8-8.5-4.3-13.3-4.7
		c-5.2-0.4-10.4,0-15,2.4c-6,3.1-7.7,6.2-9.8,9.3c0,1.2,0,10.8,0,12.2c1.6,4.3,5.7,7.3,10.2,8.7c4.4,1.4,12.8,3.1,16.6,4.2
		c0.7,0.2,1.8,0.6,2.4,1.2v6.1c-2,1.1-4.5,2-7.8,2c-7.8,0-11.8-5.6-12.3-6.3c-3.9,1.9-7.7,3.7-11.5,5.5c2.4,4.2,4.6,6,7.5,8.1
		c4.2,3.2,8.8,4.7,15.7,4.7c6.6,0,9.4-0.3,15.1-3c3.7-1.8,5.2-3.4,8.7-7.7C252.3,122.2,252.3,109.6,252.3,109.4z"/>
	<path class="st0" d="M70.7,49.2c-1.8,2.5-5.9,2.7-5.9,2.7H51.1V40.4c3.5,0,13.5,0,13.5,0s4.1,0,6.1,2.7
		C70.7,43.1,70.7,49.2,70.7,49.2z M62.4,18.7c0,0,3.4-0.1,5.4,2.2v6.6c-2.6,2.3-5.4,2.1-5.4,2.1H51.2V18.7c3.3,0,11.4,0,11.4,0
		 M76.9,34.2c1.2-0.5,4.2-1.9,6-5v-14c-4.1-7.3-16.4-7.9-16.4-7.9L36,7.3c0,0-0.1,14.4-0.1,27.6c0,0.1,0,0.1,0,0.2
		c0,0.1,0.1,28.5,0.1,28.5h31.7c0,0,13.7-0.7,17.9-8.1v-15C83.7,37.3,80.7,35.2,76.9,34.2"/>
	<polygon class="st0" points="134.9,50.8 111.4,50.8 111.4,7.3 96.1,7.3 96.1,63.5 134.9,63.5 	"/>
	<g>
		<path class="st1" d="M17.3,20.1c0,0-1,1.7-4.1,1.7c-2.8,0-4.1-1.7-4.1-1.7v-4.8c0,0,1.1-1.6,4.1-1.6s4.1,1.6,4.1,1.6V20.1z
			 M13.2,6.7c-7.7,0-11,5.4-11,5.4v11.1c0,0,3.2,5.4,11,5.4c7.6,0,11-5.4,11-5.4v-11C24.2,12.2,20.8,6.7,13.2,6.7"/>
	</g>
</g>
</svg>
